# xmcd CD database file
#
# Track frame offsets:
#	150
#	31407
#	64582
#	95932
#	123312
#	142385
#	169267
#	185682
#	203337
#
# Disc length: 2952 seconds
#
# Revision: 0
# Processed by: cddbd v1.5.2PL0 Copyright (c) Steve Scherf et al.
# Submitted via: CDex 1.51
#
DISCID=860b8609
DTITLE=Steve Cardenas - Panoramic
DYEAR=2002
DGENRE=Jazz
TTITLE0=Visa
TTITLE1=Sights
TTITLE2=Isso é para Dizier
TTITLE3=Just like I pictured it
TTITLE4=Walkup
TTITLE5=Driel
TTITLE6=Introspection
TTITLE7=D. Marie
TTITLE8=Salsita
EXTD=YEAR: 2002
EXTT0=
EXTT1=
EXTT2=
EXTT3=
EXTT4=
EXTT5=
EXTT6=
EXTT7=
EXTT8=
PLAYORDER=
